<?xml version="1.0" encoding="iso-8859-1"?>
<!-- Generator: Adobe Illustrator 16.0.0, SVG Export Plug-In . SVG Version: 6.00 Build 0)  -->
<!DOCTYPE svg PUBLIC "-//W3C//DTD SVG 1.1//EN" "http://www.w3.org/Graphics/SVG/1.1/DTD/svg11.dtd">
<svg version="1.1" id="Capa_1" xmlns="http://www.w3.org/2000/svg" xmlns:xlink="http://www.w3.org/1999/xlink" x="0px" y="0px"
	 width="60px" height="60px" viewBox="0 0 896 896" style="enable-background:new 0 0 896 896;" xml:space="preserve">
<g>
	<path d="M448,0C262.719,0,112,150.719,112,336c0,70.587,21.958,138.304,63.424,195.891l8.818,12.359l241.363,340.54
		C430.896,891.844,439.209,896,448,896c8.789,0,17.103-4.156,22.394-11.21L708.75,548.297L720.51,532
		C762.043,474.304,784,406.587,784,336C784,150.719,633.281,0,448,0z M448,448c-61.771,0-112-50.23-112-112
		c0-61.77,50.229-112,112-112c61.769,0,112,50.23,112,112C560,397.77,509.77,448,448,448z"/>
</g>
<g>
</g>
<g>
</g>
<g>
</g>
<g>
</g>
<g>
</g>
<g>
</g>
<g>
</g>
<g>
</g>
<g>
</g>
<g>
</g>
<g>
</g>
<g>
</g>
<g>
</g>
<g>
</g>
<g>
</g>
</svg>
